<svg xmlns="http://www.w3.org/2000/svg" viewBox="0 0 32 32"><title>dmr-shadowed</title><g style="isolation:isolate"><g id="b1bb9fd9-b76b-4604-9fb3-3f6ea2b761aa" data-name="shadowed"><g id="b1eff14c-92c6-415a-94a9-3457de4b192a" data-name="logo"><g style="opacity:0.35000000000000003;mix-blend-mode:multiply"><path id="b4148654-e2e5-4d04-9ea8-6e745fe0739a" data-name="left-top" d="M17,17H2.5V5.7464a3.2,3.2,0,0,1,3.2-3.2H17Z"/><path id="f426879d-1ec2-4ed8-8c9f-1751827b1425" data-name="right-top" d="M31.5,17H17V2.5464H28.3a3.2,3.2,0,0,1,3.2,3.2Z"/><path id="a13fe606-55ba-42a6-be0d-535387a4234a" data-name="left-bottom" d="M17,31.4536H5.7a3.2,3.2,0,0,1-3.2-3.2V17H17Z"/><path id="a978dba5-7700-4485-97ca-22f7b8bb38db" data-name="right-bottom" d="M28.3,31.4536H17V17H31.5V28.2536A3.2,3.2,0,0,1,28.3,31.4536Z"/><path d="M15.922,8.18341c-.67686-2.83965-2.81409-4.22294-5.74058-4.04012A2.67794,2.67794,0,0,0,7.88385,5.77624a4.22955,4.22955,0,0,0,.0129,2.33435c-.007-.01921.01663.07233.04467.17608a7.43943,7.43943,0,0,1,.14119-1.54989A2.12091,2.12091,0,0,1,10.10483,4.915c1.29563.01047,2.25237.84553,2.54274,2.48622a15.36456,15.36456,0,0,1-.02053,4.12793c-.27886,2.04127-1.10667,3.06241-2.44987,3.06241-1.29666,0-1.96076-.6864-2.24564-2.29667a14.961,14.961,0,0,1,.01379-3.98651l-4.53907.00025s1.19028.201,1.18052.854a12.12072,12.12072,0,0,0,.06157,2.30317c.45408,2.56605,2.348,3.95333,5.41942,3.95333a5.77456,5.77456,0,0,0,4.7641-1.91258A6.39906,6.39906,0,0,0,15.922,8.18341Z"/><polygon points="7.769 7.989 7.769 7.991 7.77 7.991 7.769 7.989"/><path id="a004e0d4-6b36-40bb-91d2-0ac666865ff3" data-name="point" d="M7.27846,6.08009a1.26086,1.26086,0,1,1-1.26062-1.2598A1.25971,1.25971,0,0,1,7.27846,6.08009Z"/><path id="f4f0d6fd-eafc-44e1-ada0-5410582302ad" data-name="timeline" d="M30.0651,7.66538a1.05871,1.05871,0,0,1-1.05729,1.05391.90118.90118,0,0,1-.26961-.03689l-1.882,1.87069a.92782.92782,0,0,1,.037.274,1.0573,1.0573,0,0,1-2.11458,0,.9281.9281,0,0,1,.037-.274L23.4676,9.20936a1.04294,1.04294,0,0,1-.54979,0l-2.40534,2.40291a.89268.89268,0,0,1,.037.26875,1.0573,1.0573,0,1,1-1.05729-1.05391.9015.9015,0,0,1,.26961.03688l2.41062-2.39764a.92808.92808,0,0,1-.037-.274,1.0573,1.0573,0,0,1,2.11458,0,.92775.92775,0,0,1-.037.274l1.348,1.34374a1.04267,1.04267,0,0,1,.54979,0l1.8767-1.876a.89272.89272,0,0,1-.037-.26875,1.0573,1.0573,0,0,1,2.11458,0Z"/><path id="a0a37193-bd3d-42e3-9277-2e2bd775ca80" data-name="persons" d="M26.36458,23.69985A1.58087,1.58087,0,1,0,24.77865,22.119,1.57678,1.57678,0,0,0,26.36458,23.69985Zm-4.22916,0A1.58087,1.58087,0,1,0,20.54948,22.119,1.57678,1.57678,0,0,0,22.13542,23.69985Zm0,1.05391c-1.23175,0-3.70052.61653-3.70052,1.84434v1.31738h7.401V26.5981C25.83594,25.37029,23.36716,24.75376,22.13542,24.75376Zm4.22916,0c-.1533,0-.32776.01054-.51278.02634a2.22227,2.22227,0,0,1,1.04143,1.818v1.31738H30.0651V26.5981C30.0651,25.37029,27.59633,24.75376,26.36458,24.75376Z"/><path d="M5.12991,26.509a.93478.93478,0,0,0,.76036-.40914c.36192-.3621.8071-.20812.8071.37586v2.69579H9.40181c.5854,0,.74033-.44376.37706-.80452a.93048.93048,0,0,1-.41045-.75793A1.25175,1.25175,0,0,1,10.704,26.509,1.25174,1.25174,0,0,1,12.03947,27.609a.93048.93048,0,0,1-.41045.75793c-.36326.36076-.20879.80452.37707.80452h2.70444V26.47567c0-.58353-.44518-.738-.80711-.37586a.93475.93475,0,0,1-.76036.40914,1.35474,1.35474,0,0,1,0-2.66251.93475.93475,0,0,1,.76036.40914c.36193.3621.80711.20812.80711-.37585V21.18394H12.00609c-.58541,0-.74033-.44375-.37707-.80452a.93048.93048,0,0,0,.41045-.75793A1.25174,1.25174,0,0,0,10.704,18.52143a1.25175,1.25175,0,0,0-1.33553,1.10006.93048.93048,0,0,0,.41045.75793c.36327.36077.20879.80452-.37706.80452H6.69737v2.69579c0,.58353-.44518.738-.8071.37585a.93478.93478,0,0,0-.76036-.40914,1.35474,1.35474,0,0,0,0,2.66251Z"/></g><path id="e91d5ff4-6fbc-420e-aa75-6fb2797d9325" data-name="left-top" d="M16,16H1.5V4.7464a3.2,3.2,0,0,1,3.2-3.2H16Z" style="fill:#dedc00"/><path id="fd105806-17be-408a-8aae-9e3ee98e9fb6" data-name="right-top" d="M30.5,16H16V1.5464H27.3a3.2,3.2,0,0,1,3.2,3.2Z" style="fill:#004e7b"/><path id="af9b8c0d-0bf2-4516-b1e4-3e0ec021e5a6" data-name="left-bottom" d="M16,30.4536H4.7a3.2,3.2,0,0,1-3.2-3.2V16H16Z" style="fill:#8b90a1"/><path id="afe4dc0b-2dd0-44e7-8459-96e6663dee30" data-name="right-bottom" d="M27.3,30.4536H16V16H30.5V27.2536A3.2,3.2,0,0,1,27.3,30.4536Z" style="fill:#2db8c5"/><g id="b0acfb2b-867f-4e85-8d45-99ca005a5b2d" data-name="io"><path d="M14.922,7.18341c-.67686-2.83965-2.81409-4.22294-5.74058-4.04012A2.67794,2.67794,0,0,0,6.88385,4.77624a4.22955,4.22955,0,0,0,.0129,2.33435c-.007-.01921.01663.07233.04467.17608a7.43943,7.43943,0,0,1,.14119-1.54989A2.12091,2.12091,0,0,1,9.10483,3.915c1.29563.01047,2.25237.84553,2.54274,2.48622a15.36456,15.36456,0,0,1-.02053,4.12793c-.27886,2.04127-1.10667,3.06241-2.44987,3.06241-1.29666,0-1.96076-.6864-2.24564-2.29667a14.961,14.961,0,0,1,.01379-3.98651l-4.53907.00025s1.19028.201,1.18052.854a12.12072,12.12072,0,0,0,.06157,2.30317c.45408,2.56605,2.348,3.95333,5.41942,3.95333a5.77456,5.77456,0,0,0,4.7641-1.91258A6.39906,6.39906,0,0,0,14.922,7.18341Z" style="fill:#004e7b"/><polygon points="6.769 6.989 6.769 6.991 6.77 6.991 6.769 6.989" style="fill:#004e7b"/></g><path id="f3332659-d1c7-49b7-b724-79b396f5933d" data-name="point" d="M6.27846,5.08009a1.26086,1.26086,0,1,1-1.26062-1.2598A1.25971,1.25971,0,0,1,6.27846,5.08009Z" style="fill:#004e7b"/><path id="a03b192a-7e57-41b0-9f83-8dbf06fdd665" data-name="timeline" d="M29.0651,6.66538a1.05871,1.05871,0,0,1-1.05729,1.05391.90118.90118,0,0,1-.26961-.03689l-1.882,1.87069a.92782.92782,0,0,1,.037.274,1.0573,1.0573,0,0,1-2.11458,0,.9281.9281,0,0,1,.037-.274L22.4676,8.20936a1.04294,1.04294,0,0,1-.54979,0l-2.40534,2.40291a.89268.89268,0,0,1,.037.26875,1.0573,1.0573,0,1,1-1.05729-1.05391.9015.9015,0,0,1,.26961.03688l2.41062-2.39764a.92808.92808,0,0,1-.037-.274,1.0573,1.0573,0,0,1,2.11458,0,.92775.92775,0,0,1-.037.274l1.348,1.34374a1.04267,1.04267,0,0,1,.54979,0l1.8767-1.876a.89272.89272,0,0,1-.037-.26875,1.0573,1.0573,0,0,1,2.11458,0Z" style="fill:#dedc00"/><path id="ecccbb89-2cba-4be0-838d-cab92d1de49b" data-name="persons" d="M25.36458,22.69985A1.58087,1.58087,0,1,0,23.77865,21.119,1.57678,1.57678,0,0,0,25.36458,22.69985Zm-4.22916,0A1.58087,1.58087,0,1,0,19.54948,21.119,1.57678,1.57678,0,0,0,21.13542,22.69985Zm0,1.05391c-1.23175,0-3.70052.61653-3.70052,1.84434v1.31738h7.401V25.5981C24.83594,24.37029,22.36716,23.75376,21.13542,23.75376Zm4.22916,0c-.1533,0-.32776.01054-.51278.02634a2.22227,2.22227,0,0,1,1.04143,1.818v1.31738H29.0651V25.5981C29.0651,24.37029,26.59633,23.75376,25.36458,23.75376Z" style="fill:#004e7b"/><path d="M4.12991,25.509a.93478.93478,0,0,0,.76036-.40914c.36192-.3621.8071-.20812.8071.37586v2.69579H8.40181c.5854,0,.74033-.44376.37706-.80452a.93048.93048,0,0,1-.41045-.75793A1.25175,1.25175,0,0,1,9.704,25.509,1.25174,1.25174,0,0,1,11.03947,26.609a.93048.93048,0,0,1-.41045.75793c-.36326.36076-.20879.80452.37707.80452h2.70444V25.47567c0-.58353-.44518-.738-.80711-.37586a.93475.93475,0,0,1-.76036.40914,1.35474,1.35474,0,0,1,0-2.66251.93475.93475,0,0,1,.76036.40914c.36193.3621.80711.20812.80711-.37585V20.18394H11.00609c-.58541,0-.74033-.44375-.37707-.80452a.93048.93048,0,0,0,.41045-.75793A1.25174,1.25174,0,0,0,9.704,17.52143a1.25175,1.25175,0,0,0-1.33553,1.10006.93048.93048,0,0,0,.41045.75793c.36327.36077.20879.80452-.37706.80452H5.69737v2.69579c0,.58353-.44518.738-.8071.37585a.93478.93478,0,0,0-.76036-.40914,1.35474,1.35474,0,0,0,0,2.66251Z" style="fill:#004e7b"/></g></g></g></svg>
