<svg id="e6175e88-a1b7-4019-b588-0062f91f9cdb" data-name="imarex32" xmlns="http://www.w3.org/2000/svg" viewBox="0 0 32 32"><title>imarex_neutral32</title><path id="ec6be6eb-0cf7-408a-8046-b40b9c3b20a0" data-name="left-top" d="M3.2,0H16a0,0,0,0,1,0,0V16a0,0,0,0,1,0,0H0a0,0,0,0,1,0,0V3.2A3.2,3.2,0,0,1,3.2,0Z" style="fill:#bbc0d2"/><path id="b9462a95-0fd2-4ef0-9aed-a1cfb3f5e799" data-name="right-top" d="M16,0H28.8A3.2,3.2,0,0,1,32,3.2V16a0,0,0,0,1,0,0H16a0,0,0,0,1,0,0V0A0,0,0,0,1,16,0Z" style="fill:#a1a5b5"/><path id="e9193c14-38c3-4b47-acd7-18f1dd7ab33b" data-name="left-bottom" d="M0,16H16a0,0,0,0,1,0,0V32a0,0,0,0,1,0,0H3.2A3.2,3.2,0,0,1,0,28.8V16A0,0,0,0,1,0,16Z" style="fill:#5f6373"/><path id="eae308af-ef96-40aa-8bd1-6a8f96bacbd4" data-name="right-bottom" d="M16,16H32a0,0,0,0,1,0,0V28.8A3.2,3.2,0,0,1,28.8,32H16a0,0,0,0,1,0,0V16A0,0,0,0,1,16,16Z" style="fill:#32353d"/><g id="a8ae6a22-3240-4fba-80e2-5a0f6761f847" data-name="io"><path d="M14.81048,6.24012c-.74688-3.14347-3.1052-4.67476-6.33443-4.47238A2.95555,2.95555,0,0,0,5.9408,3.5754,4.69663,4.69663,0,0,0,5.955,6.15951c-.00772-.02126.01836.08007.0493.19491a8.26055,8.26055,0,0,1,.15579-1.71571A2.34255,2.34255,0,0,1,8.39153,2.622c1.42967.0116,2.48538.936,2.80579,2.75222a17.06273,17.06273,0,0,1-.02266,4.56958c-.3077,2.25966-1.22115,3.39007-2.7033,3.39007-1.4308,0-2.16359-.75985-2.478-2.54241a16.614,16.614,0,0,1,.01522-4.413L1,6.37874s1.31341.22254,1.30264.94538A13.46051,13.46051,0,0,0,2.37058,9.8737c.50106,2.8406,2.5909,4.3763,5.98006,4.3763a6.362,6.362,0,0,0,5.25693-2.1172A7.1015,7.1015,0,0,0,14.81048,6.24012Z" style="fill:#f2f2f2"/><polygon points="5.814 6.025 5.814 6.027 5.815 6.027 5.814 6.025" style="fill:#f2f2f2"/></g><path id="a09e8e02-2503-4c07-aca7-8911559d6651" data-name="point" d="M5.27278,3.91177a1.3913,1.3913,0,1,1-1.391-1.39459A1.39223,1.39223,0,0,1,5.27278,3.91177Z" style="fill:#f2f2f2"/><path id="fb58f791-7699-4be7-a70d-36a0f1068eb9" data-name="timeline" d="M30.41667,5.66667A1.1701,1.1701,0,0,1,29.25,6.83333a.99132.99132,0,0,1-.2975-.04083L26.87583,8.86333a1.03039,1.03039,0,0,1,.04084.30334,1.16667,1.16667,0,0,1-2.33334,0,1.03039,1.03039,0,0,1,.04084-.30334l-1.4875-1.4875a1.14692,1.14692,0,0,1-.60667,0l-2.65417,2.66a.99137.99137,0,0,1,.04084.2975A1.16667,1.16667,0,1,1,18.75,9.16667a.99132.99132,0,0,1,.2975.04083l2.66-2.65417A1.03028,1.03028,0,0,1,21.66667,6.25,1.16667,1.16667,0,1,1,24,6.25a1.03061,1.03061,0,0,1-.04083.30333l1.4875,1.4875a1.14715,1.14715,0,0,1,.60666,0l2.07084-2.07666a.99137.99137,0,0,1-.04084-.2975,1.16667,1.16667,0,1,1,2.33334,0Z" style="fill:#f2f2f2"/><path id="ab933267-a0bb-4583-8420-774b1597d2ad" data-name="persons" d="M26.33333,23.41667a1.75,1.75,0,1,0-1.75-1.75A1.7427,1.7427,0,0,0,26.33333,23.41667Zm-4.66666,0a1.75,1.75,0,1,0-1.75-1.75A1.74269,1.74269,0,0,0,21.66667,23.41667Zm0,1.16666c-1.35917,0-4.08334.6825-4.08334,2.04167v1.45833H25.75V26.625C25.75,25.26583,23.02583,24.58333,21.66667,24.58333Zm4.66666,0c-.16916,0-.36166.01167-.56583.02917a2.46161,2.46161,0,0,1,1.14917,2.0125v1.45833h3.5V26.625C30.41667,25.26583,27.6925,24.58333,26.33333,24.58333Z" style="fill:#f2f2f2"/><path d="M2.902,26.52632a1.03073,1.03073,0,0,0,.839-.45292c.39937-.40084.8906-.23038.8906.41607v2.98421H7.61579c.646,0,.81691-.49122.41607-.89059a1.03074,1.03074,0,0,1-.45291-.839,1.38275,1.38275,0,0,1,1.47368-1.21775,1.38275,1.38275,0,0,1,1.47369,1.21775,1.03074,1.03074,0,0,1-.45292.839c-.40084.39937-.23038.89059.41607.89059h2.98421V26.48947c0-.646-.49122-.81691-.89059-.41607a1.03074,1.03074,0,0,1-.839.45292,1.50058,1.50058,0,0,1,0-2.94737,1.03074,1.03074,0,0,1,.839.45291c.39937.40084.89059.23039.89059-.41607V20.63158H10.48947c-.646,0-.81691-.49123-.41607-.8906a1.03073,1.03073,0,0,0,.45292-.839,1.38275,1.38275,0,0,0-1.47369-1.21775A1.38275,1.38275,0,0,0,7.579,18.902a1.03072,1.03072,0,0,0,.45291.839c.40084.39937.23039.8906-.41607.8906H4.63158v2.98421c0,.646-.49123.81691-.8906.41607a1.03072,1.03072,0,0,0-.839-.45291,1.50058,1.50058,0,0,0,0,2.94737Z" style="fill:#f2f2f2"/></svg>