<svg xmlns="http://www.w3.org/2000/svg" width="19" height="19" viewBox="0 0 19 19">
  <title>io19</title>
  <path d="M1.9,0H9.5a0,0,0,0,1,0,0V9.5a0,0,0,0,1,0,0H0a0,0,0,0,1,0,0V1.9A1.9,1.9,0,0,1,1.9,0Z" style="fill: #dedc00"/>
  <path d="M9.5,0h7.6A1.9,1.9,0,0,1,19,1.9V9.5a0,0,0,0,1,0,0H9.5a0,0,0,0,1,0,0V0A0,0,0,0,1,9.5,0Z" style="fill: #004e7b"/>
  <path d="M0,9.5H9.5a0,0,0,0,1,0,0V19a0,0,0,0,1,0,0H1.9A1.9,1.9,0,0,1,0,17.1V9.5a0,0,0,0,1,0,0Z" style="fill: #8b90a1"/>
  <path d="M9.5,9.5H19a0,0,0,0,1,0,0v7.6A1.9,1.9,0,0,1,17.1,19H9.5a0,0,0,0,1,0,0V9.5A0,0,0,0,1,9.5,9.5Z" style="fill: #2db8c5"/>
  <g>
    <path d="M8.79,3.71A3.32,3.32,0,0,0,5,1.05a1.76,1.76,0,0,0-1.5,1.07,2.78,2.78,0,0,0,0,1.54s0,0,0,.11a4.42,4.42,0,0,1,.09-1A1.38,1.38,0,0,1,5,1.56c.85,0,1.48.55,1.67,1.63a9.86,9.86,0,0,1,0,2.71c-.18,1.35-.72,2-1.6,2S3.75,7.47,3.56,6.41a10,10,0,0,1,0-2.62h-3s.78.13.78.56a7.63,7.63,0,0,0,0,1.51C1.71,7.55,3,8.46,5,8.46A3.78,3.78,0,0,0,8.08,7.2,4.21,4.21,0,0,0,8.79,3.71Z" style="fill: #004e7b"/>
    <polygon points="3.45 3.58 3.45 3.58 3.45 3.58 3.45 3.58" style="fill: #004e7b"/>
  </g>
  <path d="M3.13,2.32a.83.83,0,1,1-.83-.83A.83.83,0,0,1,3.13,2.32Z" style="fill: #004e7b"/>
  <path d="M6.83,15.66a1,1,0,0,0-.68.27L3.68,14.49a1,1,0,0,0,0-.48l2.44-1.43a1,1,0,0,0,.71.28,1,1,0,1,0-1-1,1,1,0,0,0,0,.24L3.38,13.49a1,1,0,1,0,0,1.52l2.46,1.44a1.64,1.64,0,0,0,0,.22,1,1,0,1,0,1-1Z" style="fill: #004e7b"/>
  <path d="M18.06,3.36a.69.69,0,0,1-.69.7.52.52,0,0,1-.18,0L16,5.26a1.1,1.1,0,0,1,0,.18.69.69,0,1,1-1.38,0,.55.55,0,0,1,0-.18l-.88-.88a.55.55,0,0,1-.18,0,.5.5,0,0,1-.18,0L11.8,6a.48.48,0,0,1,0,.18.7.7,0,0,1-.7.69.7.7,0,0,1,0-1.39.52.52,0,0,1,.18,0l1.58-1.58a.52.52,0,0,1,0-.18.7.7,0,0,1,.7-.69.69.69,0,0,1,.69.69,1,1,0,0,1,0,.18l.88.88.18,0,.18,0L16.7,3.54a.48.48,0,0,1,0-.18.7.7,0,0,1,.7-.69A.69.69,0,0,1,18.06,3.36Z" style="fill: #dedc00"/>
  <path d="M15.64,13.9a1,1,0,1,0-1-1A1,1,0,0,0,15.64,13.9Zm-2.78,0a1,1,0,1,0-1-1A1,1,0,0,0,12.86,13.9Zm0,.7c-.8,0-2.42.4-2.42,1.21v.86h4.85v-.86C15.29,15,13.67,14.6,12.86,14.6Zm2.78,0H15.3a1.47,1.47,0,0,1,.68,1.2v.86h2.08v-.86C18.06,15,16.44,14.6,15.64,14.6Z" style="fill: #004e7b"/>
</svg>
