<svg xmlns="http://www.w3.org/2000/svg" width="38" height="38" viewBox="0 0 38 38">
  <title>io38</title>
  <g>
    <path d="M3.8,0H19a0,0,0,0,1,0,0V19a0,0,0,0,1,0,0H0a0,0,0,0,1,0,0V3.8A3.8,3.8,0,0,1,3.8,0Z" style="fill: #dedc00"/>
    <path d="M19,0H34.2A3.8,3.8,0,0,1,38,3.8V19a0,0,0,0,1,0,0H19a0,0,0,0,1,0,0V0A0,0,0,0,1,19,0Z" style="fill: #004e7b"/>
    <path d="M0,19H19a0,0,0,0,1,0,0V38a0,0,0,0,1,0,0H3.8A3.8,3.8,0,0,1,0,34.2V19A0,0,0,0,1,0,19Z" style="fill: #8b90a1"/>
    <path d="M19,19H38a0,0,0,0,1,0,0V34.2A3.8,3.8,0,0,1,34.2,38H19a0,0,0,0,1,0,0V19A0,0,0,0,1,19,19Z" style="fill: #2db8c5"/>
    <g>
      <path d="M17.59,7.41C16.7,3.68,13.9,1.86,10.07,2.1a3.52,3.52,0,0,0-3,2.15,5.58,5.58,0,0,0,0,3.06,1.56,1.56,0,0,0,.06.24,9.65,9.65,0,0,1,.19-2A2.78,2.78,0,0,1,10,3.11c1.7,0,3,1.12,3.34,3.27a20.57,20.57,0,0,1,0,5.43c-.37,2.68-1.45,4-3.21,4s-2.57-.9-2.94-3a19.11,19.11,0,0,1,0-5.24H1.19s1.56.27,1.54,1.13a16.19,16.19,0,0,0,.09,3c.59,3.37,3.07,5.19,7.1,5.19q4.2,0,6.24-2.51A8.44,8.44,0,0,0,17.59,7.41Z" style="fill: #004e7b"/>
      <polygon points="6.91 7.16 6.9 7.16 6.91 7.16 6.91 7.16" style="fill: #004e7b"/>
    </g>
    <path d="M6.26,4.65A1.65,1.65,0,1,1,4.61,3,1.66,1.66,0,0,1,6.26,4.65Z" style="fill: #004e7b"/>
    <path d="M13.66,31.33a2,2,0,0,0-1.36.53L7.36,29a2,2,0,0,0,0-1l4.88-2.85a2.12,2.12,0,0,0,1.42.56,2.08,2.08,0,1,0-2.08-2.08,2.63,2.63,0,0,0,.06.49L6.76,27a2.12,2.12,0,0,0-1.42-.56,2.08,2.08,0,0,0,0,4.16A2.12,2.12,0,0,0,6.76,30l4.93,2.88a1.68,1.68,0,0,0-.06.45,2,2,0,1,0,2-2Z" style="fill: #004e7b"/>
    <path d="M36.12,6.73a1.38,1.38,0,0,1-1.39,1.38,1.34,1.34,0,0,1-.35,0l-2.46,2.46a1.41,1.41,0,0,1-1.34,1.74,1.39,1.39,0,0,1-1.39-1.38,1.36,1.36,0,0,1,0-.36L27.47,8.76a1.36,1.36,0,0,1-.36.05,1.49,1.49,0,0,1-.36-.05L23.6,11.92a1,1,0,0,1,0,.35,1.39,1.39,0,1,1-1.38-1.38,1.34,1.34,0,0,1,.35,0l3.16-3.15a1,1,0,0,1-.05-.36,1.39,1.39,0,0,1,2.77,0,1,1,0,0,1-.05.36l1.77,1.77a1,1,0,0,1,.36-.05,1.08,1.08,0,0,1,.36.05L33.4,7.08a1,1,0,0,1,0-.35,1.39,1.39,0,1,1,2.77,0Z" style="fill: #dedc00"/>
    <path d="M31.27,27.81a2.08,2.08,0,1,0-2.08-2.08A2.07,2.07,0,0,0,31.27,27.81Zm-5.54,0a2.08,2.08,0,1,0-2.08-2.08A2.07,2.07,0,0,0,25.73,27.81Zm0,1.38c-1.61,0-4.85.81-4.85,2.43v1.73h9.7V31.62C30.58,30,27.34,29.19,25.73,29.19Zm5.54,0c-.2,0-.43,0-.67,0A2.92,2.92,0,0,1,32,31.62v1.73h4.16V31.62C36.12,30,32.88,29.19,31.27,29.19Z" style="fill: #004e7b"/>
  </g>
</svg>
