<svg xmlns="http://www.w3.org/2000/svg" width="96" height="96" viewBox="0 0 96 96">
  <title>io96</title>
  <g>
    <path d="M9.6,0H48a0,0,0,0,1,0,0V48a0,0,0,0,1,0,0H0a0,0,0,0,1,0,0V9.6A9.6,9.6,0,0,1,9.6,0Z" style="fill: #dedc00"/>
    <path d="M48,0H86.4A9.6,9.6,0,0,1,96,9.6V48a0,0,0,0,1,0,0H48a0,0,0,0,1,0,0V0A0,0,0,0,1,48,0Z" style="fill: #004e7b"/>
    <path d="M0,48H48a0,0,0,0,1,0,0V96a0,0,0,0,1,0,0H9.6A9.6,9.6,0,0,1,0,86.4V48A0,0,0,0,1,0,48Z" style="fill: #8b90a1"/>
    <path d="M48,48H96a0,0,0,0,1,0,0V86.4A9.6,9.6,0,0,1,86.4,96H48a0,0,0,0,1,0,0V48a0,0,0,0,1,0,0Z" style="fill: #2db8c5"/>
    <g>
      <path d="M44.43,18.72c-2.24-9.43-9.31-14-19-13.42a8.88,8.88,0,0,0-7.61,5.43,14.07,14.07,0,0,0,.05,7.75,4.14,4.14,0,0,0,.14.58,24.9,24.9,0,0,1,.47-5.14c1.11-4.36,4-6.08,6.69-6,4.29,0,7.46,2.8,8.42,8.25a51.16,51.16,0,0,1-.07,13.71C32.6,36.61,29.86,40,25.41,40c-4.29,0-6.49-2.28-7.43-7.63A49.56,49.56,0,0,1,18,19.14H3S6.94,19.8,6.91,22a40.75,40.75,0,0,0,.2,7.65c1.5,8.52,7.77,13.13,17.94,13.13,7.1,0,12.34-2.12,15.77-6.35C44.18,32.32,46,25.3,44.43,18.72Z" style="fill: #004e7b"/>
      <polygon points="17.44 18.08 17.44 18.08 17.44 18.08 17.44 18.08" style="fill: #004e7b"/>
    </g>
    <path d="M15.82,11.74a4.18,4.18,0,1,1-4.17-4.19A4.18,4.18,0,0,1,15.82,11.74Z" style="fill: #004e7b"/>
    <path d="M34.5,79.14a5.06,5.06,0,0,0-3.43,1.35L18.59,73.22a4.73,4.73,0,0,0,0-2.44l12.34-7.2a5.24,5.24,0,1,0-1.68-3.83A5.51,5.51,0,0,0,29.41,61l-12.34,7.2a5.25,5.25,0,1,0,0,7.66l12.46,7.28a4.81,4.81,0,0,0-.14,1.14,5.11,5.11,0,1,0,5.11-5.11Z" style="fill: #004e7b"/>
    <path d="M91.25,17a3.5,3.5,0,0,1-3.5,3.5,3.19,3.19,0,0,1-.89-.12l-6.23,6.21a3.39,3.39,0,0,1,.12.91,3.5,3.5,0,0,1-7,0,3.34,3.34,0,0,1,.12-.91l-4.46-4.46a3.51,3.51,0,0,1-1.82,0l-8,8a3.19,3.19,0,0,1,.12.89,3.5,3.5,0,1,1-3.5-3.5,3.24,3.24,0,0,1,.89.12l8-8a3.34,3.34,0,0,1-.12-.91,3.5,3.5,0,0,1,7,0,3.34,3.34,0,0,1-.12.91l4.46,4.46a3.51,3.51,0,0,1,1.82,0l6.21-6.23a3.19,3.19,0,0,1-.12-.89,3.5,3.5,0,0,1,7,0Z" style="fill: #dedc00"/>
    <path d="M79,70.25A5.25,5.25,0,1,0,73.75,65,5.23,5.23,0,0,0,79,70.25Zm-14,0A5.25,5.25,0,1,0,59.75,65,5.23,5.23,0,0,0,65,70.25Zm0,3.5c-4.08,0-12.25,2-12.25,6.13v4.37h24.5V79.88C77.25,75.8,69.08,73.75,65,73.75Zm14,0c-.51,0-1.08,0-1.7.09a7.39,7.39,0,0,1,3.45,6v4.37h10.5V79.88C91.25,75.8,83.08,73.75,79,73.75Z" style="fill: #004e7b"/>
  </g>
</svg>
