<svg xmlns="http://www.w3.org/2000/svg" width="48" height="48" viewBox="0 0 48 48">
  <title>io48</title>
  <g>
    <path d="M4.8,0H24a0,0,0,0,1,0,0V24a0,0,0,0,1,0,0H0a0,0,0,0,1,0,0V4.8A4.8,4.8,0,0,1,4.8,0Z" style="fill: #dedc00"/>
    <path d="M24,0H43.2A4.8,4.8,0,0,1,48,4.8V24a0,0,0,0,1,0,0H24a0,0,0,0,1,0,0V0A0,0,0,0,1,24,0Z" style="fill: #004e7b"/>
    <path d="M0,24H24a0,0,0,0,1,0,0V48a0,0,0,0,1,0,0H4.8A4.8,4.8,0,0,1,0,43.2V24A0,0,0,0,1,0,24Z" style="fill: #8b90a1"/>
    <path d="M24,24H48a0,0,0,0,1,0,0V43.2A4.8,4.8,0,0,1,43.2,48H24a0,0,0,0,1,0,0V24A0,0,0,0,1,24,24Z" style="fill: #2db8c5"/>
    <g>
      <path d="M22.22,9.36c-1.12-4.72-4.66-7-9.51-6.71a4.43,4.43,0,0,0-3.8,2.71,7.1,7.1,0,0,0,0,3.88s0,.12.08.29A12.24,12.24,0,0,1,9.24,7c.55-2.18,2-3,3.35-3,2.14,0,3.73,1.41,4.21,4.13a25.43,25.43,0,0,1,0,6.86C16.3,18.31,14.93,20,12.71,20S9.46,18.86,9,16.19A25.23,25.23,0,0,1,9,9.57H1.5s2,.33,2,1.42a20.34,20.34,0,0,0,.11,3.82c.75,4.26,3.88,6.57,9,6.57,3.54,0,6.16-1.06,7.88-3.18A10.67,10.67,0,0,0,22.22,9.36Z" style="fill: #004e7b"/>
      <polygon points="8.72 9.04 8.72 9.04 8.72 9.04 8.72 9.04" style="fill: #004e7b"/>
    </g>
    <path d="M7.91,5.87A2.09,2.09,0,1,1,5.82,3.78,2.09,2.09,0,0,1,7.91,5.87Z" style="fill: #004e7b"/>
    <path d="M17.25,39.57a2.52,2.52,0,0,0-1.71.67L9.3,36.61a2.37,2.37,0,0,0,0-1.22l6.17-3.6a2.59,2.59,0,0,0,1.78.71,2.63,2.63,0,1,0-2.63-2.63,3.19,3.19,0,0,0,.08.62L8.53,34.08a2.62,2.62,0,1,0,0,3.84l6.23,3.64a2.6,2.6,0,0,0-.07.56,2.56,2.56,0,1,0,2.56-2.55Z" style="fill: #004e7b"/>
    <path d="M45.62,8.5a1.75,1.75,0,0,1-1.74,1.75,1.63,1.63,0,0,1-.45-.06L40.31,13.3a1.33,1.33,0,0,1,.06.45,1.75,1.75,0,0,1-3.5,0,1.43,1.43,0,0,1,.07-.46L34.7,11.06a1.33,1.33,0,0,1-.45.06,1.42,1.42,0,0,1-.46-.06l-4,4a1.33,1.33,0,0,1,.06.45,1.75,1.75,0,1,1-1.75-1.75,1.63,1.63,0,0,1,.45.06l4-4a1.68,1.68,0,0,1-.06-.45,1.75,1.75,0,1,1,3.5,0,1.68,1.68,0,0,1-.06.45l2.23,2.23a1.68,1.68,0,0,1,.45-.06,1.7,1.7,0,0,1,.46.06L42.19,9a1.33,1.33,0,0,1-.07-.45,1.75,1.75,0,1,1,3.5,0Z" style="fill: #dedc00"/>
    <path d="M39.5,35.12a2.63,2.63,0,1,0-2.63-2.62A2.62,2.62,0,0,0,39.5,35.12Zm-7,0a2.63,2.63,0,1,0-2.62-2.62A2.62,2.62,0,0,0,32.5,35.12Zm0,1.75c-2,0-6.12,1-6.12,3.07v2.18H38.62V39.94C38.62,37.9,34.54,36.87,32.5,36.87Zm7,0c-.25,0-.54,0-.85.05a3.66,3.66,0,0,1,1.72,3v2.18h5.25V39.94C45.62,37.9,41.54,36.87,39.5,36.87Z" style="fill: #004e7b"/>
  </g>
</svg>
